<svg width="140" height="140" viewBox="0 0 140 140" fill="none" xmlns="http://www.w3.org/2000/svg">
<path d="M4.82753 9.15527e-05H-6.10352e-05V4.82768H4.82753V9.15527e-05Z" fill="black" fill-opacity="0.88"/>
<path d="M9.65511 9.15527e-05H4.82753V4.82768H9.65511V9.15527e-05Z" fill="black" fill-opacity="0.88"/>
<path d="M14.4827 9.15527e-05H9.65511V4.82768H14.4827V9.15527e-05Z" fill="black" fill-opacity="0.88"/>
<path d="M19.3103 9.15527e-05H14.4827V4.82768H19.3103V9.15527e-05Z" fill="black" fill-opacity="0.88"/>
<path d="M24.1379 9.15527e-05H19.3103V4.82768H24.1379V9.15527e-05Z" fill="black" fill-opacity="0.88"/>
<path d="M28.9655 9.15527e-05H24.1379V4.82768H28.9655V9.15527e-05Z" fill="black" fill-opacity="0.88"/>
<path d="M33.793 9.15527e-05H28.9655V4.82768H33.793V9.15527e-05Z" fill="black" fill-opacity="0.88"/>
<path d="M43.4482 9.15527e-05H38.6206V4.82768H43.4482V9.15527e-05Z" fill="black" fill-opacity="0.88"/>
<path d="M53.1034 9.15527e-05H48.2758V4.82768H53.1034V9.15527e-05Z" fill="black" fill-opacity="0.88"/>
<path d="M62.7586 9.15527e-05H57.931V4.82768H62.7586V9.15527e-05Z" fill="black" fill-opacity="0.88"/>
<path d="M77.2413 9.15527e-05H72.4137V4.82768H77.2413V9.15527e-05Z" fill="black" fill-opacity="0.88"/>
<path d="M82.0689 9.15527e-05H77.2413V4.82768H82.0689V9.15527e-05Z" fill="black" fill-opacity="0.88"/>
<path d="M86.8965 9.15527e-05H82.0689V4.82768H86.8965V9.15527e-05Z" fill="black" fill-opacity="0.88"/>
<path d="M91.7241 9.15527e-05H86.8965V4.82768H91.7241V9.15527e-05Z" fill="black" fill-opacity="0.88"/>
<path d="M96.5517 9.15527e-05H91.7241V4.82768H96.5517V9.15527e-05Z" fill="black" fill-opacity="0.88"/>
<path d="M101.379 9.15527e-05H96.5517V4.82768H101.379V9.15527e-05Z" fill="black" fill-opacity="0.88"/>
<path d="M111.034 9.15527e-05H106.207V4.82768H111.034V9.15527e-05Z" fill="black" fill-opacity="0.88"/>
<path d="M115.862 9.15527e-05H111.034V4.82768H115.862V9.15527e-05Z" fill="black" fill-opacity="0.88"/>
<path d="M120.69 9.15527e-05H115.862V4.82768H120.69V9.15527e-05Z" fill="black" fill-opacity="0.88"/>
<path d="M125.517 9.15527e-05H120.69V4.82768H125.517V9.15527e-05Z" fill="black" fill-opacity="0.88"/>
<path d="M130.345 9.15527e-05H125.517V4.82768H130.345V9.15527e-05Z" fill="black" fill-opacity="0.88"/>
<path d="M135.172 9.15527e-05H130.345V4.82768H135.172V9.15527e-05Z" fill="black" fill-opacity="0.88"/>
<path d="M140 9.15527e-05H135.172V4.82768H140V9.15527e-05Z" fill="black" fill-opacity="0.88"/>
<path d="M4.82753 4.82768H-6.10352e-05V9.65526H4.82753V4.82768Z" fill="black" fill-opacity="0.88"/>
<path d="M33.793 4.82768H28.9655V9.65526H33.793V4.82768Z" fill="black" fill-opacity="0.88"/>
<path d="M48.2758 4.82768H43.4482V9.65526H48.2758V4.82768Z" fill="black" fill-opacity="0.88"/>
<path d="M57.931 4.82768H53.1034V9.65526H57.931V4.82768Z" fill="black" fill-opacity="0.88"/>
<path d="M62.7586 4.82768H57.931V9.65526H62.7586V4.82768Z" fill="black" fill-opacity="0.88"/>
<path d="M72.4137 4.82768H67.5861V9.65526H72.4137V4.82768Z" fill="black" fill-opacity="0.88"/>
<path d="M86.8965 4.82768H82.0689V9.65526H86.8965V4.82768Z" fill="black" fill-opacity="0.88"/>
<path d="M91.7241 4.82768H86.8965V9.65526H91.7241V4.82768Z" fill="black" fill-opacity="0.88"/>
<path d="M96.5517 4.82768H91.7241V9.65526H96.5517V4.82768Z" fill="black" fill-opacity="0.88"/>
<path d="M101.379 4.82768H96.5517V9.65526H101.379V4.82768Z" fill="black" fill-opacity="0.88"/>
<path d="M111.034 4.82768H106.207V9.65526H111.034V4.82768Z" fill="black" fill-opacity="0.88"/>
<path d="M140 4.82768H135.172V9.65526H140V4.82768Z" fill="black" fill-opacity="0.88"/>
<path d="M4.82753 9.65526H-6.10352e-05V14.4829H4.82753V9.65526Z" fill="black" fill-opacity="0.88"/>
<path d="M14.4827 9.65526H9.65511V14.4829H14.4827V9.65526Z" fill="black" fill-opacity="0.88"/>
<path d="M19.3103 9.65526H14.4827V14.4829H19.3103V9.65526Z" fill="black" fill-opacity="0.88"/>
<path d="M24.1379 9.65526H19.3103V14.4829H24.1379V9.65526Z" fill="black" fill-opacity="0.88"/>
<path d="M33.793 9.65526H28.9655V14.4829H33.793V9.65526Z" fill="black" fill-opacity="0.88"/>
<path d="M48.2758 9.65526H43.4482V14.4829H48.2758V9.65526Z" fill="black" fill-opacity="0.88"/>
<path d="M62.7586 9.65526H57.931V14.4829H62.7586V9.65526Z" fill="black" fill-opacity="0.88"/>
<path d="M67.5861 9.65526H62.7586V14.4829H67.5861V9.65526Z" fill="black" fill-opacity="0.88"/>
<path d="M77.2413 9.65526H72.4137V14.4829H77.2413V9.65526Z" fill="black" fill-opacity="0.88"/>
<path d="M82.0689 9.65526H77.2413V14.4829H82.0689V9.65526Z" fill="black" fill-opacity="0.88"/>
<path d="M91.7241 9.65526H86.8965V14.4829H91.7241V9.65526Z" fill="black" fill-opacity="0.88"/>
<path d="M101.379 9.65526H96.5517V14.4829H101.379V9.65526Z" fill="black" fill-opacity="0.88"/>
<path d="M111.034 9.65526H106.207V14.4829H111.034V9.65526Z" fill="black" fill-opacity="0.88"/>
<path d="M120.69 9.65526H115.862V14.4829H120.69V9.65526Z" fill="black" fill-opacity="0.88"/>
<path d="M125.517 9.65526H120.69V14.4829H125.517V9.65526Z" fill="black" fill-opacity="0.88"/>
<path d="M130.345 9.65526H125.517V14.4829H130.345V9.65526Z" fill="black" fill-opacity="0.88"/>
<path d="M140 9.65526H135.172V14.4829H140V9.65526Z" fill="black" fill-opacity="0.88"/>
<path d="M4.82753 14.4829H-6.10352e-05V19.3104H4.82753V14.4829Z" fill="black" fill-opacity="0.88"/>
<path d="M14.4827 14.4829H9.65511V19.3104H14.4827V14.4829Z" fill="black" fill-opacity="0.88"/>
<path d="M19.3103 14.4829H14.4827V19.3104H19.3103V14.4829Z" fill="black" fill-opacity="0.88"/>
<path d="M24.1379 14.4829H19.3103V19.3104H24.1379V14.4829Z" fill="black" fill-opacity="0.88"/>
<path d="M33.793 14.4829H28.9655V19.3104H33.793V14.4829Z" fill="black" fill-opacity="0.88"/>
<path d="M43.4482 14.4829H38.6206V19.3104H43.4482V14.4829Z" fill="black" fill-opacity="0.88"/>
<path d="M48.2758 14.4829H43.4482V19.3104H48.2758V14.4829Z" fill="black" fill-opacity="0.88"/>
<path d="M57.931 14.4829H53.1034V19.3104H57.931V14.4829Z" fill="black" fill-opacity="0.88"/>
<path d="M62.7586 14.4829H57.931V19.3104H62.7586V14.4829Z" fill="black" fill-opacity="0.88"/>
<path d="M67.5861 14.4829H62.7586V19.3104H67.5861V14.4829Z" fill="black" fill-opacity="0.88"/>
<path d="M82.0689 14.4829H77.2413V19.3104H82.0689V14.4829Z" fill="black" fill-opacity="0.88"/>
<path d="M86.8965 14.4829H82.0689V19.3104H86.8965V14.4829Z" fill="black" fill-opacity="0.88"/>
<path d="M91.7241 14.4829H86.8965V19.3104H91.7241V14.4829Z" fill="black" fill-opacity="0.88"/>
<path d="M96.5517 14.4829H91.7241V19.3104H96.5517V14.4829Z" fill="black" fill-opacity="0.88"/>
<path d="M111.034 14.4829H106.207V19.3104H111.034V14.4829Z" fill="black" fill-opacity="0.88"/>
<path d="M120.69 14.4829H115.862V19.3104H120.69V14.4829Z" fill="black" fill-opacity="0.88"/>
<path d="M125.517 14.4829H120.69V19.3104H125.517V14.4829Z" fill="black" fill-opacity="0.88"/>
<path d="M130.345 14.4829H125.517V19.3104H130.345V14.4829Z" fill="black" fill-opacity="0.88"/>
<path d="M140 14.4829H135.172V19.3104H140V14.4829Z" fill="black" fill-opacity="0.88"/>
<path d="M4.82753 19.3104H-6.10352e-05V24.138H4.82753V19.3104Z" fill="black" fill-opacity="0.88"/>
<path d="M14.4827 19.3104H9.65511V24.138H14.4827V19.3104Z" fill="black" fill-opacity="0.88"/>
<path d="M19.3103 19.3104H14.4827V24.138H19.3103V19.3104Z" fill="black" fill-opacity="0.88"/>
<path d="M24.1379 19.3104H19.3103V24.138H24.1379V19.3104Z" fill="black" fill-opacity="0.88"/>
<path d="M33.793 19.3104H28.9655V24.138H33.793V19.3104Z" fill="black" fill-opacity="0.88"/>
<path d="M43.4482 19.3104H38.6206V24.138H43.4482V19.3104Z" fill="black" fill-opacity="0.88"/>
<path d="M48.2758 19.3104H43.4482V24.138H48.2758V19.3104Z" fill="black" fill-opacity="0.88"/>
<path d="M53.1034 19.3104H48.2758V24.138H53.1034V19.3104Z" fill="black" fill-opacity="0.88"/>
<path d="M62.7586 19.3104H57.931V24.138H62.7586V19.3104Z" fill="black" fill-opacity="0.88"/>
<path d="M77.2413 19.3104H72.4137V24.138H77.2413V19.3104Z" fill="black" fill-opacity="0.88"/>
<path d="M86.8965 19.3104H82.0689V24.138H86.8965V19.3104Z" fill="black" fill-opacity="0.88"/>
<path d="M91.7241 19.3104H86.8965V24.138H91.7241V19.3104Z" fill="black" fill-opacity="0.88"/>
<path d="M101.379 19.3104H96.5517V24.138H101.379V19.3104Z" fill="black" fill-opacity="0.88"/>
<path d="M111.034 19.3104H106.207V24.138H111.034V19.3104Z" fill="black" fill-opacity="0.88"/>
<path d="M120.69 19.3104H115.862V24.138H120.69V19.3104Z" fill="black" fill-opacity="0.88"/>
<path d="M125.517 19.3104H120.69V24.138H125.517V19.3104Z" fill="black" fill-opacity="0.88"/>
<path d="M130.345 19.3104H125.517V24.138H130.345V19.3104Z" fill="black" fill-opacity="0.88"/>
<path d="M140 19.3104H135.172V24.138H140V19.3104Z" fill="black" fill-opacity="0.88"/>
<path d="M4.82753 24.138H-6.10352e-05V28.9656H4.82753V24.138Z" fill="black" fill-opacity="0.88"/>
<path d="M33.793 24.138H28.9655V28.9656H33.793V24.138Z" fill="black" fill-opacity="0.88"/>
<path d="M43.4482 24.138H38.6206V28.9656H43.4482V24.138Z" fill="black" fill-opacity="0.88"/>
<path d="M53.1034 24.138H48.2758V28.9656H53.1034V24.138Z" fill="black" fill-opacity="0.88"/>
<path d="M57.931 24.138H53.1034V28.9656H57.931V24.138Z" fill="black" fill-opacity="0.88"/>
<path d="M77.2413 24.138H72.4137V28.9656H77.2413V24.138Z" fill="black" fill-opacity="0.88"/>
<path d="M82.0689 24.138H77.2413V28.9656H82.0689V24.138Z" fill="black" fill-opacity="0.88"/>
<path d="M96.5517 24.138H91.7241V28.9656H96.5517V24.138Z" fill="black" fill-opacity="0.88"/>
<path d="M111.034 24.138H106.207V28.9656H111.034V24.138Z" fill="black" fill-opacity="0.88"/>
<path d="M140 24.138H135.172V28.9656H140V24.138Z" fill="black" fill-opacity="0.88"/>
<path d="M4.82753 28.9656H-6.10352e-05V33.7932H4.82753V28.9656Z" fill="black" fill-opacity="0.88"/>
<path d="M9.65511 28.9656H4.82753V33.7932H9.65511V28.9656Z" fill="black" fill-opacity="0.88"/>
<path d="M14.4827 28.9656H9.65511V33.7932H14.4827V28.9656Z" fill="black" fill-opacity="0.88"/>
<path d="M19.3103 28.9656H14.4827V33.7932H19.3103V28.9656Z" fill="black" fill-opacity="0.88"/>
<path d="M24.1379 28.9656H19.3103V33.7932H24.1379V28.9656Z" fill="black" fill-opacity="0.88"/>
<path d="M28.9655 28.9656H24.1379V33.7932H28.9655V28.9656Z" fill="black" fill-opacity="0.88"/>
<path d="M33.793 28.9656H28.9655V33.7932H33.793V28.9656Z" fill="black" fill-opacity="0.88"/>
<path d="M43.4482 28.9656H38.6206V33.7932H43.4482V28.9656Z" fill="black" fill-opacity="0.88"/>
<path d="M53.1034 28.9656H48.2758V33.7932H53.1034V28.9656Z" fill="black" fill-opacity="0.88"/>
<path d="M62.7586 28.9656H57.931V33.7932H62.7586V28.9656Z" fill="black" fill-opacity="0.88"/>
<path d="M72.4137 28.9656H67.5861V33.7932H72.4137V28.9656Z" fill="black" fill-opacity="0.88"/>
<path d="M82.0689 28.9656H77.2413V33.7932H82.0689V28.9656Z" fill="black" fill-opacity="0.88"/>
<path d="M91.7241 28.9656H86.8965V33.7932H91.7241V28.9656Z" fill="black" fill-opacity="0.88"/>
<path d="M101.379 28.9656H96.5517V33.7932H101.379V28.9656Z" fill="black" fill-opacity="0.88"/>
<path d="M111.034 28.9656H106.207V33.7932H111.034V28.9656Z" fill="black" fill-opacity="0.88"/>
<path d="M115.862 28.9656H111.034V33.7932H115.862V28.9656Z" fill="black" fill-opacity="0.88"/>
<path d="M120.69 28.9656H115.862V33.7932H120.69V28.9656Z" fill="black" fill-opacity="0.88"/>
<path d="M125.517 28.9656H120.69V33.7932H125.517V28.9656Z" fill="black" fill-opacity="0.88"/>
<path d="M130.345 28.9656H125.517V33.7932H130.345V28.9656Z" fill="black" fill-opacity="0.88"/>
<path d="M135.172 28.9656H130.345V33.7932H135.172V28.9656Z" fill="black" fill-opacity="0.88"/>
<path d="M140 28.9656H135.172V33.7932H140V28.9656Z" fill="black" fill-opacity="0.88"/>
<path d="M43.4482 33.7932H38.6206V38.6208H43.4482V33.7932Z" fill="black" fill-opacity="0.88"/>
<path d="M48.2758 33.7932H43.4482V38.6208H48.2758V33.7932Z" fill="black" fill-opacity="0.88"/>
<path d="M67.5861 33.7932H62.7586V38.6208H67.5861V33.7932Z" fill="black" fill-opacity="0.88"/>
<path d="M96.5517 33.7932H91.7241V38.6208H96.5517V33.7932Z" fill="black" fill-opacity="0.88"/>
<path d="M4.82753 38.6208H-6.10352e-05V43.4484H4.82753V38.6208Z" fill="black" fill-opacity="0.88"/>
<path d="M9.65511 38.6208H4.82753V43.4484H9.65511V38.6208Z" fill="black" fill-opacity="0.88"/>
<path d="M14.4827 38.6208H9.65511V43.4484H14.4827V38.6208Z" fill="black" fill-opacity="0.88"/>
<path d="M24.1379 38.6208H19.3103V43.4484H24.1379V38.6208Z" fill="black" fill-opacity="0.88"/>
<path d="M33.793 38.6208H28.9655V43.4484H33.793V38.6208Z" fill="black" fill-opacity="0.88"/>
<path d="M43.4482 38.6208H38.6206V43.4484H43.4482V38.6208Z" fill="black" fill-opacity="0.88"/>
<path d="M62.7586 38.6208H57.931V43.4484H62.7586V38.6208Z" fill="black" fill-opacity="0.88"/>
<path d="M91.7241 38.6208H86.8965V43.4484H91.7241V38.6208Z" fill="black" fill-opacity="0.88"/>
<path d="M106.207 38.6208H101.379V43.4484H106.207V38.6208Z" fill="black" fill-opacity="0.88"/>
<path d="M111.034 38.6208H106.207V43.4484H111.034V38.6208Z" fill="black" fill-opacity="0.88"/>
<path d="M115.862 38.6208H111.034V43.4484H115.862V38.6208Z" fill="black" fill-opacity="0.88"/>
<path d="M120.69 38.6208H115.862V43.4484H120.69V38.6208Z" fill="black" fill-opacity="0.88"/>
<path d="M125.517 38.6208H120.69V43.4484H125.517V38.6208Z" fill="black" fill-opacity="0.88"/>
<path d="M140 38.6208H135.172V43.4484H140V38.6208Z" fill="black" fill-opacity="0.88"/>
<path d="M9.65511 43.4484H4.82753V48.276H9.65511V43.4484Z" fill="black" fill-opacity="0.88"/>
<path d="M19.3103 43.4484H14.4827V48.276H19.3103V43.4484Z" fill="black" fill-opacity="0.88"/>
<path d="M38.6206 43.4484H33.793V48.276H38.6206V43.4484Z" fill="black" fill-opacity="0.88"/>
<path d="M43.4482 43.4484H38.6206V48.276H43.4482V43.4484Z" fill="black" fill-opacity="0.88"/>
<path d="M62.7586 43.4484H57.931V48.276H62.7586V43.4484Z" fill="black" fill-opacity="0.88"/>
<path d="M67.5861 43.4484H62.7586V48.276H67.5861V43.4484Z" fill="black" fill-opacity="0.88"/>
<path d="M82.0689 43.4484H77.2413V48.276H82.0689V43.4484Z" fill="black" fill-opacity="0.88"/>
<path d="M86.8965 43.4484H82.0689V48.276H86.8965V43.4484Z" fill="black" fill-opacity="0.88"/>
<path d="M101.379 43.4484H96.5517V48.276H101.379V43.4484Z" fill="black" fill-opacity="0.88"/>
<path d="M135.172 43.4484H130.345V48.276H135.172V43.4484Z" fill="black" fill-opacity="0.88"/>
<path d="M140 43.4484H135.172V48.276H140V43.4484Z" fill="black" fill-opacity="0.88"/>
<path d="M24.1379 48.276H19.3103V53.1035H24.1379V48.276Z" fill="black" fill-opacity="0.88"/>
<path d="M28.9655 48.276H24.1379V53.1035H28.9655V48.276Z" fill="black" fill-opacity="0.88"/>
<path d="M33.793 48.276H28.9655V53.1035H33.793V48.276Z" fill="black" fill-opacity="0.88"/>
<path d="M38.6206 48.276H33.793V53.1035H38.6206V48.276Z" fill="black" fill-opacity="0.88"/>
<path d="M43.4482 48.276H38.6206V53.1035H43.4482V48.276Z" fill="black" fill-opacity="0.88"/>
<path d="M57.931 48.276H53.1034V53.1035H57.931V48.276Z" fill="black" fill-opacity="0.88"/>
<path d="M62.7586 48.276H57.931V53.1035H62.7586V48.276Z" fill="black" fill-opacity="0.88"/>
<path d="M67.5861 48.276H62.7586V53.1035H67.5861V48.276Z" fill="black" fill-opacity="0.88"/>
<path d="M72.4137 48.276H67.5861V53.1035H72.4137V48.276Z" fill="black" fill-opacity="0.88"/>
<path d="M82.0689 48.276H77.2413V53.1035H82.0689V48.276Z" fill="black" fill-opacity="0.88"/>
<path d="M96.5517 48.276H91.7241V53.1035H96.5517V48.276Z" fill="black" fill-opacity="0.88"/>
<path d="M111.034 48.276H106.207V53.1035H111.034V48.276Z" fill="black" fill-opacity="0.88"/>
<path d="M120.69 48.276H115.862V53.1035H120.69V48.276Z" fill="black" fill-opacity="0.88"/>
<path d="M130.345 48.276H125.517V53.1035H130.345V48.276Z" fill="black" fill-opacity="0.88"/>
<path d="M140 48.276H135.172V53.1035H140V48.276Z" fill="black" fill-opacity="0.88"/>
<path d="M4.82753 53.1035H-6.10352e-05V57.9311H4.82753V53.1035Z" fill="black" fill-opacity="0.88"/>
<path d="M9.65511 53.1035H4.82753V57.9311H9.65511V53.1035Z" fill="black" fill-opacity="0.88"/>
<path d="M14.4827 53.1035H9.65511V57.9311H14.4827V53.1035Z" fill="black" fill-opacity="0.88"/>
<path d="M19.3103 53.1035H14.4827V57.9311H19.3103V53.1035Z" fill="black" fill-opacity="0.88"/>
<path d="M28.9655 53.1035H24.1379V57.9311H28.9655V53.1035Z" fill="black" fill-opacity="0.88"/>
<path d="M53.1034 53.1035H48.2758V57.9311H53.1034V53.1035Z" fill="black" fill-opacity="0.88"/>
<path d="M57.931 53.1035H53.1034V57.9311H57.931V53.1035Z" fill="black" fill-opacity="0.88"/>
<path d="M62.7586 53.1035H57.931V57.9311H62.7586V53.1035Z" fill="black" fill-opacity="0.88"/>
<path d="M67.5861 53.1035H62.7586V57.9311H67.5861V53.1035Z" fill="black" fill-opacity="0.88"/>
<path d="M77.2413 53.1035H72.4137V57.9311H77.2413V53.1035Z" fill="black" fill-opacity="0.88"/>
<path d="M91.7241 53.1035H86.8965V57.9311H91.7241V53.1035Z" fill="black" fill-opacity="0.88"/>
<path d="M111.034 53.1035H106.207V57.9311H111.034V53.1035Z" fill="black" fill-opacity="0.88"/>
<path d="M115.862 53.1035H111.034V57.9311H115.862V53.1035Z" fill="black" fill-opacity="0.88"/>
<path d="M120.69 53.1035H115.862V57.9311H120.69V53.1035Z" fill="black" fill-opacity="0.88"/>
<path d="M135.172 53.1035H130.345V57.9311H135.172V53.1035Z" fill="black" fill-opacity="0.88"/>
<path d="M14.4827 57.9311H9.65511V62.7587H14.4827V57.9311Z" fill="black" fill-opacity="0.88"/>
<path d="M19.3103 57.9311H14.4827V62.7587H19.3103V57.9311Z" fill="black" fill-opacity="0.88"/>
<path d="M24.1379 57.9311H19.3103V62.7587H24.1379V57.9311Z" fill="black" fill-opacity="0.88"/>
<path d="M28.9655 57.9311H24.1379V62.7587H28.9655V57.9311Z" fill="black" fill-opacity="0.88"/>
<path d="M33.793 57.9311H28.9655V62.7587H33.793V57.9311Z" fill="black" fill-opacity="0.88"/>
<path d="M43.4482 57.9311H38.6206V62.7587H43.4482V57.9311Z" fill="black" fill-opacity="0.88"/>
<path d="M53.1034 57.9311H48.2758V62.7587H53.1034V57.9311Z" fill="black" fill-opacity="0.88"/>
<path d="M57.931 57.9311H53.1034V62.7587H57.931V57.9311Z" fill="black" fill-opacity="0.88"/>
<path d="M62.7586 57.9311H57.931V62.7587H62.7586V57.9311Z" fill="black" fill-opacity="0.88"/>
<path d="M67.5861 57.9311H62.7586V62.7587H67.5861V57.9311Z" fill="black" fill-opacity="0.88"/>
<path d="M72.4137 57.9311H67.5861V62.7587H72.4137V57.9311Z" fill="black" fill-opacity="0.88"/>
<path d="M77.2413 57.9311H72.4137V62.7587H77.2413V57.9311Z" fill="black" fill-opacity="0.88"/>
<path d="M86.8965 57.9311H82.0689V62.7587H86.8965V57.9311Z" fill="black" fill-opacity="0.88"/>
<path d="M96.5517 57.9311H91.7241V62.7587H96.5517V57.9311Z" fill="black" fill-opacity="0.88"/>
<path d="M101.379 57.9311H96.5517V62.7587H101.379V57.9311Z" fill="black" fill-opacity="0.88"/>
<path d="M115.862 57.9311H111.034V62.7587H115.862V57.9311Z" fill="black" fill-opacity="0.88"/>
<path d="M120.69 57.9311H115.862V62.7587H120.69V57.9311Z" fill="black" fill-opacity="0.88"/>
<path d="M38.6206 62.7587H33.793V67.5863H38.6206V62.7587Z" fill="black" fill-opacity="0.88"/>
<path d="M43.4482 62.7587H38.6206V67.5863H43.4482V62.7587Z" fill="black" fill-opacity="0.88"/>
<path d="M48.2758 62.7587H43.4482V67.5863H48.2758V62.7587Z" fill="black" fill-opacity="0.88"/>
<path d="M53.1034 62.7587H48.2758V67.5863H53.1034V62.7587Z" fill="black" fill-opacity="0.88"/>
<path d="M57.931 62.7587H53.1034V67.5863H57.931V62.7587Z" fill="black" fill-opacity="0.88"/>
<path d="M62.7586 62.7587H57.931V67.5863H62.7586V62.7587Z" fill="black" fill-opacity="0.88"/>
<path d="M67.5861 62.7587H62.7586V67.5863H67.5861V62.7587Z" fill="black" fill-opacity="0.88"/>
<path d="M72.4137 62.7587H67.5861V67.5863H72.4137V62.7587Z" fill="black" fill-opacity="0.88"/>
<path d="M86.8965 62.7587H82.0689V67.5863H86.8965V62.7587Z" fill="black" fill-opacity="0.88"/>
<path d="M101.379 62.7587H96.5517V67.5863H101.379V62.7587Z" fill="black" fill-opacity="0.88"/>
<path d="M120.69 62.7587H115.862V67.5863H120.69V62.7587Z" fill="black" fill-opacity="0.88"/>
<path d="M130.345 62.7587H125.517V67.5863H130.345V62.7587Z" fill="black" fill-opacity="0.88"/>
<path d="M135.172 62.7587H130.345V67.5863H135.172V62.7587Z" fill="black" fill-opacity="0.88"/>
<path d="M24.1379 67.5863H19.3103V72.4139H24.1379V67.5863Z" fill="black" fill-opacity="0.88"/>
<path d="M33.793 67.5863H28.9655V72.4139H33.793V67.5863Z" fill="black" fill-opacity="0.88"/>
<path d="M67.5861 67.5863H62.7586V72.4139H67.5861V67.5863Z" fill="black" fill-opacity="0.88"/>
<path d="M82.0689 67.5863H77.2413V72.4139H82.0689V67.5863Z" fill="black" fill-opacity="0.88"/>
<path d="M86.8965 67.5863H82.0689V72.4139H86.8965V67.5863Z" fill="black" fill-opacity="0.88"/>
<path d="M96.5517 67.5863H91.7241V72.4139H96.5517V67.5863Z" fill="black" fill-opacity="0.88"/>
<path d="M101.379 67.5863H96.5517V72.4139H101.379V67.5863Z" fill="black" fill-opacity="0.88"/>
<path d="M106.207 67.5863H101.379V72.4139H106.207V67.5863Z" fill="black" fill-opacity="0.88"/>
<path d="M111.034 67.5863H106.207V72.4139H111.034V67.5863Z" fill="black" fill-opacity="0.88"/>
<path d="M115.862 67.5863H111.034V72.4139H115.862V67.5863Z" fill="black" fill-opacity="0.88"/>
<path d="M120.69 67.5863H115.862V72.4139H120.69V67.5863Z" fill="black" fill-opacity="0.88"/>
<path d="M130.345 67.5863H125.517V72.4139H130.345V67.5863Z" fill="black" fill-opacity="0.88"/>
<path d="M4.82753 72.4139H-6.10352e-05V77.2415H4.82753V72.4139Z" fill="black" fill-opacity="0.88"/>
<path d="M14.4827 72.4139H9.65511V77.2415H14.4827V72.4139Z" fill="black" fill-opacity="0.88"/>
<path d="M24.1379 72.4139H19.3103V77.2415H24.1379V72.4139Z" fill="black" fill-opacity="0.88"/>
<path d="M28.9655 72.4139H24.1379V77.2415H28.9655V72.4139Z" fill="black" fill-opacity="0.88"/>
<path d="M38.6206 72.4139H33.793V77.2415H38.6206V72.4139Z" fill="black" fill-opacity="0.88"/>
<path d="M53.1034 72.4139H48.2758V77.2415H53.1034V72.4139Z" fill="black" fill-opacity="0.88"/>
<path d="M62.7586 72.4139H57.931V77.2415H62.7586V72.4139Z" fill="black" fill-opacity="0.88"/>
<path d="M77.2413 72.4139H72.4137V77.2415H77.2413V72.4139Z" fill="black" fill-opacity="0.88"/>
<path d="M91.7241 72.4139H86.8965V77.2415H91.7241V72.4139Z" fill="black" fill-opacity="0.88"/>
<path d="M101.379 72.4139H96.5517V77.2415H101.379V72.4139Z" fill="black" fill-opacity="0.88"/>
<path d="M115.862 72.4139H111.034V77.2415H115.862V72.4139Z" fill="black" fill-opacity="0.88"/>
<path d="M130.345 72.4139H125.517V77.2415H130.345V72.4139Z" fill="black" fill-opacity="0.88"/>
<path d="M135.172 72.4139H130.345V77.2415H135.172V72.4139Z" fill="black" fill-opacity="0.88"/>
<path d="M4.82753 77.2415H-6.10352e-05V82.0691H4.82753V77.2415Z" fill="black" fill-opacity="0.88"/>
<path d="M9.65511 77.2415H4.82753V82.0691H9.65511V77.2415Z" fill="black" fill-opacity="0.88"/>
<path d="M14.4827 77.2415H9.65511V82.0691H14.4827V77.2415Z" fill="black" fill-opacity="0.88"/>
<path d="M19.3103 77.2415H14.4827V82.0691H19.3103V77.2415Z" fill="black" fill-opacity="0.88"/>
<path d="M24.1379 77.2415H19.3103V82.0691H24.1379V77.2415Z" fill="black" fill-opacity="0.88"/>
<path d="M28.9655 77.2415H24.1379V82.0691H28.9655V77.2415Z" fill="black" fill-opacity="0.88"/>
<path d="M33.793 77.2415H28.9655V82.0691H33.793V77.2415Z" fill="black" fill-opacity="0.88"/>
<path d="M38.6206 77.2415H33.793V82.0691H38.6206V77.2415Z" fill="black" fill-opacity="0.88"/>
<path d="M48.2758 77.2415H43.4482V82.0691H48.2758V77.2415Z" fill="black" fill-opacity="0.88"/>
<path d="M53.1034 77.2415H48.2758V82.0691H53.1034V77.2415Z" fill="black" fill-opacity="0.88"/>
<path d="M57.931 77.2415H53.1034V82.0691H57.931V77.2415Z" fill="black" fill-opacity="0.88"/>
<path d="M62.7586 77.2415H57.931V82.0691H62.7586V77.2415Z" fill="black" fill-opacity="0.88"/>
<path d="M67.5861 77.2415H62.7586V82.0691H67.5861V77.2415Z" fill="black" fill-opacity="0.88"/>
<path d="M72.4137 77.2415H67.5861V82.0691H72.4137V77.2415Z" fill="black" fill-opacity="0.88"/>
<path d="M82.0689 77.2415H77.2413V82.0691H82.0689V77.2415Z" fill="black" fill-opacity="0.88"/>
<path d="M86.8965 77.2415H82.0689V82.0691H86.8965V77.2415Z" fill="black" fill-opacity="0.88"/>
<path d="M101.379 77.2415H96.5517V82.0691H101.379V77.2415Z" fill="black" fill-opacity="0.88"/>
<path d="M120.69 77.2415H115.862V82.0691H120.69V77.2415Z" fill="black" fill-opacity="0.88"/>
<path d="M9.65511 82.0691H4.82753V86.8966H9.65511V82.0691Z" fill="black" fill-opacity="0.88"/>
<path d="M19.3103 82.0691H14.4827V86.8966H19.3103V82.0691Z" fill="black" fill-opacity="0.88"/>
<path d="M24.1379 82.0691H19.3103V86.8966H24.1379V82.0691Z" fill="black" fill-opacity="0.88"/>
<path d="M43.4482 82.0691H38.6206V86.8966H43.4482V82.0691Z" fill="black" fill-opacity="0.88"/>
<path d="M48.2758 82.0691H43.4482V86.8966H48.2758V82.0691Z" fill="black" fill-opacity="0.88"/>
<path d="M57.931 82.0691H53.1034V86.8966H57.931V82.0691Z" fill="black" fill-opacity="0.88"/>
<path d="M67.5861 82.0691H62.7586V86.8966H67.5861V82.0691Z" fill="black" fill-opacity="0.88"/>
<path d="M101.379 82.0691H96.5517V86.8966H101.379V82.0691Z" fill="black" fill-opacity="0.88"/>
<path d="M115.862 82.0691H111.034V86.8966H115.862V82.0691Z" fill="black" fill-opacity="0.88"/>
<path d="M130.345 82.0691H125.517V86.8966H130.345V82.0691Z" fill="black" fill-opacity="0.88"/>
<path d="M4.82753 86.8966H-6.10352e-05V91.7242H4.82753V86.8966Z" fill="black" fill-opacity="0.88"/>
<path d="M14.4827 86.8966H9.65511V91.7242H14.4827V86.8966Z" fill="black" fill-opacity="0.88"/>
<path d="M24.1379 86.8966H19.3103V91.7242H24.1379V86.8966Z" fill="black" fill-opacity="0.88"/>
<path d="M28.9655 86.8966H24.1379V91.7242H28.9655V86.8966Z" fill="black" fill-opacity="0.88"/>
<path d="M33.793 86.8966H28.9655V91.7242H33.793V86.8966Z" fill="black" fill-opacity="0.88"/>
<path d="M48.2758 86.8966H43.4482V91.7242H48.2758V86.8966Z" fill="black" fill-opacity="0.88"/>
<path d="M67.5861 86.8966H62.7586V91.7242H67.5861V86.8966Z" fill="black" fill-opacity="0.88"/>
<path d="M82.0689 86.8966H77.2413V91.7242H82.0689V86.8966Z" fill="black" fill-opacity="0.88"/>
<path d="M86.8965 86.8966H82.0689V91.7242H86.8965V86.8966Z" fill="black" fill-opacity="0.88"/>
<path d="M96.5517 86.8966H91.7241V91.7242H96.5517V86.8966Z" fill="black" fill-opacity="0.88"/>
<path d="M106.207 86.8966H101.379V91.7242H106.207V86.8966Z" fill="black" fill-opacity="0.88"/>
<path d="M111.034 86.8966H106.207V91.7242H111.034V86.8966Z" fill="black" fill-opacity="0.88"/>
<path d="M115.862 86.8966H111.034V91.7242H115.862V86.8966Z" fill="black" fill-opacity="0.88"/>
<path d="M130.345 86.8966H125.517V91.7242H130.345V86.8966Z" fill="black" fill-opacity="0.88"/>
<path d="M135.172 86.8966H130.345V91.7242H135.172V86.8966Z" fill="black" fill-opacity="0.88"/>
<path d="M140 86.8966H135.172V91.7242H140V86.8966Z" fill="black" fill-opacity="0.88"/>
<path d="M9.65511 91.7242H4.82753V96.5518H9.65511V91.7242Z" fill="black" fill-opacity="0.88"/>
<path d="M14.4827 91.7242H9.65511V96.5518H14.4827V91.7242Z" fill="black" fill-opacity="0.88"/>
<path d="M24.1379 91.7242H19.3103V96.5518H24.1379V91.7242Z" fill="black" fill-opacity="0.88"/>
<path d="M38.6206 91.7242H33.793V96.5518H38.6206V91.7242Z" fill="black" fill-opacity="0.88"/>
<path d="M43.4482 91.7242H38.6206V96.5518H43.4482V91.7242Z" fill="black" fill-opacity="0.88"/>
<path d="M48.2758 91.7242H43.4482V96.5518H48.2758V91.7242Z" fill="black" fill-opacity="0.88"/>
<path d="M62.7586 91.7242H57.931V96.5518H62.7586V91.7242Z" fill="black" fill-opacity="0.88"/>
<path d="M72.4137 91.7242H67.5861V96.5518H72.4137V91.7242Z" fill="black" fill-opacity="0.88"/>
<path d="M77.2413 91.7242H72.4137V96.5518H77.2413V91.7242Z" fill="black" fill-opacity="0.88"/>
<path d="M86.8965 91.7242H82.0689V96.5518H86.8965V91.7242Z" fill="black" fill-opacity="0.88"/>
<path d="M91.7241 91.7242H86.8965V96.5518H91.7241V91.7242Z" fill="black" fill-opacity="0.88"/>
<path d="M96.5517 91.7242H91.7241V96.5518H96.5517V91.7242Z" fill="black" fill-opacity="0.88"/>
<path d="M101.379 91.7242H96.5517V96.5518H101.379V91.7242Z" fill="black" fill-opacity="0.88"/>
<path d="M106.207 91.7242H101.379V96.5518H106.207V91.7242Z" fill="black" fill-opacity="0.88"/>
<path d="M111.034 91.7242H106.207V96.5518H111.034V91.7242Z" fill="black" fill-opacity="0.88"/>
<path d="M115.862 91.7242H111.034V96.5518H115.862V91.7242Z" fill="black" fill-opacity="0.88"/>
<path d="M120.69 91.7242H115.862V96.5518H120.69V91.7242Z" fill="black" fill-opacity="0.88"/>
<path d="M140 91.7242H135.172V96.5518H140V91.7242Z" fill="black" fill-opacity="0.88"/>
<path d="M4.82753 96.5518H-6.10352e-05V101.379H4.82753V96.5518Z" fill="black" fill-opacity="0.88"/>
<path d="M9.65511 96.5518H4.82753V101.379H9.65511V96.5518Z" fill="black" fill-opacity="0.88"/>
<path d="M14.4827 96.5518H9.65511V101.379H14.4827V96.5518Z" fill="black" fill-opacity="0.88"/>
<path d="M28.9655 96.5518H24.1379V101.379H28.9655V96.5518Z" fill="black" fill-opacity="0.88"/>
<path d="M33.793 96.5518H28.9655V101.379H33.793V96.5518Z" fill="black" fill-opacity="0.88"/>
<path d="M38.6206 96.5518H33.793V101.379H38.6206V96.5518Z" fill="black" fill-opacity="0.88"/>
<path d="M57.931 96.5518H53.1034V101.379H57.931V96.5518Z" fill="black" fill-opacity="0.88"/>
<path d="M62.7586 96.5518H57.931V101.379H62.7586V96.5518Z" fill="black" fill-opacity="0.88"/>
<path d="M72.4137 96.5518H67.5861V101.379H72.4137V96.5518Z" fill="black" fill-opacity="0.88"/>
<path d="M77.2413 96.5518H72.4137V101.379H77.2413V96.5518Z" fill="black" fill-opacity="0.88"/>
<path d="M86.8965 96.5518H82.0689V101.379H86.8965V96.5518Z" fill="black" fill-opacity="0.88"/>
<path d="M91.7241 96.5518H86.8965V101.379H91.7241V96.5518Z" fill="black" fill-opacity="0.88"/>
<path d="M101.379 96.5518H96.5517V101.379H101.379V96.5518Z" fill="black" fill-opacity="0.88"/>
<path d="M106.207 96.5518H101.379V101.379H106.207V96.5518Z" fill="black" fill-opacity="0.88"/>
<path d="M111.034 96.5518H106.207V101.379H111.034V96.5518Z" fill="black" fill-opacity="0.88"/>
<path d="M115.862 96.5518H111.034V101.379H115.862V96.5518Z" fill="black" fill-opacity="0.88"/>
<path d="M120.69 96.5518H115.862V101.379H120.69V96.5518Z" fill="black" fill-opacity="0.88"/>
<path d="M125.517 96.5518H120.69V101.379H125.517V96.5518Z" fill="black" fill-opacity="0.88"/>
<path d="M140 96.5518H135.172V101.379H140V96.5518Z" fill="black" fill-opacity="0.88"/>
<path d="M43.4482 101.379H38.6206V106.207H43.4482V101.379Z" fill="black" fill-opacity="0.88"/>
<path d="M48.2758 101.379H43.4482V106.207H48.2758V101.379Z" fill="black" fill-opacity="0.88"/>
<path d="M53.1034 101.379H48.2758V106.207H53.1034V101.379Z" fill="black" fill-opacity="0.88"/>
<path d="M77.2413 101.379H72.4137V106.207H77.2413V101.379Z" fill="black" fill-opacity="0.88"/>
<path d="M91.7241 101.379H86.8965V106.207H91.7241V101.379Z" fill="black" fill-opacity="0.88"/>
<path d="M96.5517 101.379H91.7241V106.207H96.5517V101.379Z" fill="black" fill-opacity="0.88"/>
<path d="M101.379 101.379H96.5517V106.207H101.379V101.379Z" fill="black" fill-opacity="0.88"/>
<path d="M120.69 101.379H115.862V106.207H120.69V101.379Z" fill="black" fill-opacity="0.88"/>
<path d="M125.517 101.379H120.69V106.207H125.517V101.379Z" fill="black" fill-opacity="0.88"/>
<path d="M130.345 101.379H125.517V106.207H130.345V101.379Z" fill="black" fill-opacity="0.88"/>
<path d="M4.82753 106.207H-6.10352e-05V111.035H4.82753V106.207Z" fill="black" fill-opacity="0.88"/>
<path d="M9.65511 106.207H4.82753V111.035H9.65511V106.207Z" fill="black" fill-opacity="0.88"/>
<path d="M14.4827 106.207H9.65511V111.035H14.4827V106.207Z" fill="black" fill-opacity="0.88"/>
<path d="M19.3103 106.207H14.4827V111.035H19.3103V106.207Z" fill="black" fill-opacity="0.88"/>
<path d="M24.1379 106.207H19.3103V111.035H24.1379V106.207Z" fill="black" fill-opacity="0.88"/>
<path d="M28.9655 106.207H24.1379V111.035H28.9655V106.207Z" fill="black" fill-opacity="0.88"/>
<path d="M33.793 106.207H28.9655V111.035H33.793V106.207Z" fill="black" fill-opacity="0.88"/>
<path d="M62.7586 106.207H57.931V111.035H62.7586V106.207Z" fill="black" fill-opacity="0.88"/>
<path d="M67.5861 106.207H62.7586V111.035H67.5861V106.207Z" fill="black" fill-opacity="0.88"/>
<path d="M91.7241 106.207H86.8965V111.035H91.7241V106.207Z" fill="black" fill-opacity="0.88"/>
<path d="M96.5517 106.207H91.7241V111.035H96.5517V106.207Z" fill="black" fill-opacity="0.88"/>
<path d="M101.379 106.207H96.5517V111.035H101.379V106.207Z" fill="black" fill-opacity="0.88"/>
<path d="M111.034 106.207H106.207V111.035H111.034V106.207Z" fill="black" fill-opacity="0.88"/>
<path d="M120.69 106.207H115.862V111.035H120.69V106.207Z" fill="black" fill-opacity="0.88"/>
<path d="M140 106.207H135.172V111.035H140V106.207Z" fill="black" fill-opacity="0.88"/>
<path d="M4.82753 111.035H-6.10352e-05V115.862H4.82753V111.035Z" fill="black" fill-opacity="0.88"/>
<path d="M33.793 111.035H28.9655V115.862H33.793V111.035Z" fill="black" fill-opacity="0.88"/>
<path d="M48.2758 111.035H43.4482V115.862H48.2758V111.035Z" fill="black" fill-opacity="0.88"/>
<path d="M53.1034 111.035H48.2758V115.862H53.1034V111.035Z" fill="black" fill-opacity="0.88"/>
<path d="M62.7586 111.035H57.931V115.862H62.7586V111.035Z" fill="black" fill-opacity="0.88"/>
<path d="M72.4137 111.035H67.5861V115.862H72.4137V111.035Z" fill="black" fill-opacity="0.88"/>
<path d="M77.2413 111.035H72.4137V115.862H77.2413V111.035Z" fill="black" fill-opacity="0.88"/>
<path d="M96.5517 111.035H91.7241V115.862H96.5517V111.035Z" fill="black" fill-opacity="0.88"/>
<path d="M101.379 111.035H96.5517V115.862H101.379V111.035Z" fill="black" fill-opacity="0.88"/>
<path d="M120.69 111.035H115.862V115.862H120.69V111.035Z" fill="black" fill-opacity="0.88"/>
<path d="M125.517 111.035H120.69V115.862H125.517V111.035Z" fill="black" fill-opacity="0.88"/>
<path d="M130.345 111.035H125.517V115.862H130.345V111.035Z" fill="black" fill-opacity="0.88"/>
<path d="M135.172 111.035H130.345V115.862H135.172V111.035Z" fill="black" fill-opacity="0.88"/>
<path d="M4.82753 115.862H-6.10352e-05V120.69H4.82753V115.862Z" fill="black" fill-opacity="0.88"/>
<path d="M14.4827 115.862H9.65511V120.69H14.4827V115.862Z" fill="black" fill-opacity="0.88"/>
<path d="M19.3103 115.862H14.4827V120.69H19.3103V115.862Z" fill="black" fill-opacity="0.88"/>
<path d="M24.1379 115.862H19.3103V120.69H24.1379V115.862Z" fill="black" fill-opacity="0.88"/>
<path d="M33.793 115.862H28.9655V120.69H33.793V115.862Z" fill="black" fill-opacity="0.88"/>
<path d="M43.4482 115.862H38.6206V120.69H43.4482V115.862Z" fill="black" fill-opacity="0.88"/>
<path d="M48.2758 115.862H43.4482V120.69H48.2758V115.862Z" fill="black" fill-opacity="0.88"/>
<path d="M67.5861 115.862H62.7586V120.69H67.5861V115.862Z" fill="black" fill-opacity="0.88"/>
<path d="M77.2413 115.862H72.4137V120.69H77.2413V115.862Z" fill="black" fill-opacity="0.88"/>
<path d="M86.8965 115.862H82.0689V120.69H86.8965V115.862Z" fill="black" fill-opacity="0.88"/>
<path d="M96.5517 115.862H91.7241V120.69H96.5517V115.862Z" fill="black" fill-opacity="0.88"/>
<path d="M101.379 115.862H96.5517V120.69H101.379V115.862Z" fill="black" fill-opacity="0.88"/>
<path d="M106.207 115.862H101.379V120.69H106.207V115.862Z" fill="black" fill-opacity="0.88"/>
<path d="M111.034 115.862H106.207V120.69H111.034V115.862Z" fill="black" fill-opacity="0.88"/>
<path d="M115.862 115.862H111.034V120.69H115.862V115.862Z" fill="black" fill-opacity="0.88"/>
<path d="M120.69 115.862H115.862V120.69H120.69V115.862Z" fill="black" fill-opacity="0.88"/>
<path d="M130.345 115.862H125.517V120.69H130.345V115.862Z" fill="black" fill-opacity="0.88"/>
<path d="M140 115.862H135.172V120.69H140V115.862Z" fill="black" fill-opacity="0.88"/>
<path d="M4.82753 120.69H-6.10352e-05V125.517H4.82753V120.69Z" fill="black" fill-opacity="0.88"/>
<path d="M14.4827 120.69H9.65511V125.517H14.4827V120.69Z" fill="black" fill-opacity="0.88"/>
<path d="M19.3103 120.69H14.4827V125.517H19.3103V120.69Z" fill="black" fill-opacity="0.88"/>
<path d="M24.1379 120.69H19.3103V125.517H24.1379V120.69Z" fill="black" fill-opacity="0.88"/>
<path d="M33.793 120.69H28.9655V125.517H33.793V120.69Z" fill="black" fill-opacity="0.88"/>
<path d="M57.931 120.69H53.1034V125.517H57.931V120.69Z" fill="black" fill-opacity="0.88"/>
<path d="M67.5861 120.69H62.7586V125.517H67.5861V120.69Z" fill="black" fill-opacity="0.88"/>
<path d="M82.0689 120.69H77.2413V125.517H82.0689V120.69Z" fill="black" fill-opacity="0.88"/>
<path d="M91.7241 120.69H86.8965V125.517H91.7241V120.69Z" fill="black" fill-opacity="0.88"/>
<path d="M96.5517 120.69H91.7241V125.517H96.5517V120.69Z" fill="black" fill-opacity="0.88"/>
<path d="M101.379 120.69H96.5517V125.517H101.379V120.69Z" fill="black" fill-opacity="0.88"/>
<path d="M106.207 120.69H101.379V125.517H106.207V120.69Z" fill="black" fill-opacity="0.88"/>
<path d="M111.034 120.69H106.207V125.517H111.034V120.69Z" fill="black" fill-opacity="0.88"/>
<path d="M120.69 120.69H115.862V125.517H120.69V120.69Z" fill="black" fill-opacity="0.88"/>
<path d="M135.172 120.69H130.345V125.517H135.172V120.69Z" fill="black" fill-opacity="0.88"/>
<path d="M140 120.69H135.172V125.517H140V120.69Z" fill="black" fill-opacity="0.88"/>
<path d="M4.82753 125.517H-6.10352e-05V130.345H4.82753V125.517Z" fill="black" fill-opacity="0.88"/>
<path d="M14.4827 125.517H9.65511V130.345H14.4827V125.517Z" fill="black" fill-opacity="0.88"/>
<path d="M19.3103 125.517H14.4827V130.345H19.3103V125.517Z" fill="black" fill-opacity="0.88"/>
<path d="M24.1379 125.517H19.3103V130.345H24.1379V125.517Z" fill="black" fill-opacity="0.88"/>
<path d="M33.793 125.517H28.9655V130.345H33.793V125.517Z" fill="black" fill-opacity="0.88"/>
<path d="M43.4482 125.517H38.6206V130.345H43.4482V125.517Z" fill="black" fill-opacity="0.88"/>
<path d="M48.2758 125.517H43.4482V130.345H48.2758V125.517Z" fill="black" fill-opacity="0.88"/>
<path d="M53.1034 125.517H48.2758V130.345H53.1034V125.517Z" fill="black" fill-opacity="0.88"/>
<path d="M67.5861 125.517H62.7586V130.345H67.5861V125.517Z" fill="black" fill-opacity="0.88"/>
<path d="M72.4137 125.517H67.5861V130.345H72.4137V125.517Z" fill="black" fill-opacity="0.88"/>
<path d="M77.2413 125.517H72.4137V130.345H77.2413V125.517Z" fill="black" fill-opacity="0.88"/>
<path d="M86.8965 125.517H82.0689V130.345H86.8965V125.517Z" fill="black" fill-opacity="0.88"/>
<path d="M96.5517 125.517H91.7241V130.345H96.5517V125.517Z" fill="black" fill-opacity="0.88"/>
<path d="M101.379 125.517H96.5517V130.345H101.379V125.517Z" fill="black" fill-opacity="0.88"/>
<path d="M130.345 125.517H125.517V130.345H130.345V125.517Z" fill="black" fill-opacity="0.88"/>
<path d="M135.172 125.517H130.345V130.345H135.172V125.517Z" fill="black" fill-opacity="0.88"/>
<path d="M4.82753 130.345H-6.10352e-05V135.173H4.82753V130.345Z" fill="black" fill-opacity="0.88"/>
<path d="M33.793 130.345H28.9655V135.173H33.793V130.345Z" fill="black" fill-opacity="0.88"/>
<path d="M43.4482 130.345H38.6206V135.173H43.4482V130.345Z" fill="black" fill-opacity="0.88"/>
<path d="M48.2758 130.345H43.4482V135.173H48.2758V130.345Z" fill="black" fill-opacity="0.88"/>
<path d="M67.5861 130.345H62.7586V135.173H67.5861V130.345Z" fill="black" fill-opacity="0.88"/>
<path d="M86.8965 130.345H82.0689V135.173H86.8965V130.345Z" fill="black" fill-opacity="0.88"/>
<path d="M101.379 130.345H96.5517V135.173H101.379V130.345Z" fill="black" fill-opacity="0.88"/>
<path d="M125.517 130.345H120.69V135.173H125.517V130.345Z" fill="black" fill-opacity="0.88"/>
<path d="M130.345 130.345H125.517V135.173H130.345V130.345Z" fill="black" fill-opacity="0.88"/>
<path d="M4.82753 135.173H-6.10352e-05V140H4.82753V135.173Z" fill="black" fill-opacity="0.88"/>
<path d="M9.65511 135.173H4.82753V140H9.65511V135.173Z" fill="black" fill-opacity="0.88"/>
<path d="M14.4827 135.173H9.65511V140H14.4827V135.173Z" fill="black" fill-opacity="0.88"/>
<path d="M19.3103 135.173H14.4827V140H19.3103V135.173Z" fill="black" fill-opacity="0.88"/>
<path d="M24.1379 135.173H19.3103V140H24.1379V135.173Z" fill="black" fill-opacity="0.88"/>
<path d="M28.9655 135.173H24.1379V140H28.9655V135.173Z" fill="black" fill-opacity="0.88"/>
<path d="M33.793 135.173H28.9655V140H33.793V135.173Z" fill="black" fill-opacity="0.88"/>
<path d="M43.4482 135.173H38.6206V140H43.4482V135.173Z" fill="black" fill-opacity="0.88"/>
<path d="M57.931 135.173H53.1034V140H57.931V135.173Z" fill="black" fill-opacity="0.88"/>
<path d="M62.7586 135.173H57.931V140H62.7586V135.173Z" fill="black" fill-opacity="0.88"/>
<path d="M67.5861 135.173H62.7586V140H67.5861V135.173Z" fill="black" fill-opacity="0.88"/>
<path d="M72.4137 135.173H67.5861V140H72.4137V135.173Z" fill="black" fill-opacity="0.88"/>
<path d="M77.2413 135.173H72.4137V140H77.2413V135.173Z" fill="black" fill-opacity="0.88"/>
<path d="M91.7241 135.173H86.8965V140H91.7241V135.173Z" fill="black" fill-opacity="0.88"/>
<path d="M130.345 135.173H125.517V140H130.345V135.173Z" fill="black" fill-opacity="0.88"/>
<path d="M135.172 135.173H130.345V140H135.172V135.173Z" fill="black" fill-opacity="0.88"/>
</svg>
